<svg width="31" height="42" viewBox="0 0 31 42" fill="none" xmlns="http://www.w3.org/2000/svg">
<path d="M6.4 38C8.14933 38 9.64267 37.5307 10.88 36.592C12.16 35.6107 12.8 34.16 12.8 32.24C12.8 30.6187 12.16 29.2533 10.88 28.144C9.64267 27.0347 8.14933 26.48 6.4 26.48C5.97333 26.48 5.54667 26.4587 5.12 26.416V2.16L0 3.44V23.92V32.24C0 36.08 2.13333 38 6.4 38ZM6.4 33.52C6.05867 33.52 5.76 33.392 5.504 33.136C5.248 32.88 5.12 32.5813 5.12 32.24C5.12 31.8987 5.248 31.6 5.504 31.344C5.76 31.088 6.05867 30.96 6.4 30.96C6.74133 30.96 7.04 31.088 7.296 31.344C7.552 31.6 7.68 31.8987 7.68 32.24C7.68 32.5813 7.552 32.88 7.296 33.136C7.04 33.392 6.74133 33.52 6.4 33.52ZM20.495 38V32.24C20.495 31.8987 20.623 31.6 20.879 31.344C21.135 31.088 21.4337 30.96 21.775 30.96C22.1163 30.96 22.415 31.088 22.671 31.344C22.927 31.6 23.055 31.8987 23.055 32.24V39.28L28.175 38V32.24C28.175 30.6187 27.535 29.2533 26.255 28.144C25.0177 27.0347 23.5243 26.48 21.775 26.48C21.3483 26.48 20.9217 26.4587 20.495 26.416V2.16L15.375 3.44V39.28L20.495 38Z" fill="white"/>
</svg>
